<svg width="123" height="123" viewBox="0 0 123 123" fill="none" xmlns="http://www.w3.org/2000/svg">
<rect x="0.179688" y="0.046875" width="10" height="10" rx="5" fill="#81818B" fill-opacity="0.2"/>
<rect x="16.1797" y="0.046875" width="10" height="10" rx="5" fill="#81818B" fill-opacity="0.2"/>
<rect x="32.1797" y="0.046875" width="10" height="10" rx="5" fill="#81818B" fill-opacity="0.2"/>
<rect x="48.1797" y="0.046875" width="10" height="10" rx="5" fill="#81818B" fill-opacity="0.2"/>
<rect x="64.1797" y="0.046875" width="10" height="10" rx="5" fill="#81818B" fill-opacity="0.2"/>
<rect x="80.1797" y="0.046875" width="10" height="10" rx="5" fill="#81818B" fill-opacity="0.2"/>
<rect x="96.1797" y="0.046875" width="10" height="10" rx="5" fill="#81818B" fill-opacity="0.2"/>
<rect x="112.18" y="0.046875" width="10" height="10" rx="5" fill="#81818B" fill-opacity="0.2"/>
<rect x="0.179688" y="16.0469" width="10" height="10" rx="5" fill="#81818B" fill-opacity="0.2"/>
<rect x="16.1797" y="16.0469" width="10" height="10" rx="5" fill="#81818B" fill-opacity="0.2"/>
<rect x="32.1797" y="16.0469" width="10" height="10" rx="5" fill="#81818B" fill-opacity="0.2"/>
<rect x="48.1797" y="16.0469" width="10" height="10" rx="5" fill="#81818B" fill-opacity="0.2"/>
<rect x="64.1797" y="16.0469" width="10" height="10" rx="5" fill="#81818B" fill-opacity="0.2"/>
<rect x="80.1797" y="16.0469" width="10" height="10" rx="5" fill="#81818B" fill-opacity="0.2"/>
<rect x="96.1797" y="16.0469" width="10" height="10" rx="5" fill="#81818B" fill-opacity="0.2"/>
<rect x="112.18" y="16.0469" width="10" height="10" rx="5" fill="#81818B" fill-opacity="0.2"/>
<rect x="0.179688" y="32.0469" width="10" height="10" rx="5" fill="#81818B" fill-opacity="0.2"/>
<rect x="16.1797" y="32.0469" width="10" height="10" rx="5" fill="#81818B" fill-opacity="0.2"/>
<rect x="32.1797" y="32.0469" width="10" height="10" rx="5" fill="#81818B" fill-opacity="0.2"/>
<rect x="48.1797" y="32.0469" width="10" height="10" rx="5" fill="#81818B" fill-opacity="0.2"/>
<rect x="64.1797" y="32.0469" width="10" height="10" rx="5" fill="#81818B" fill-opacity="0.2"/>
<rect x="80.1797" y="32.0469" width="10" height="10" rx="5" fill="#81818B" fill-opacity="0.2"/>
<rect x="96.1797" y="32.0469" width="10" height="10" rx="5" fill="#81818B" fill-opacity="0.2"/>
<rect x="112.18" y="32.0469" width="10" height="10" rx="5" fill="#81818B" fill-opacity="0.2"/>
<rect x="0.179688" y="48.0469" width="10" height="10" rx="5" fill="#81818B" fill-opacity="0.2"/>
<rect x="16.1797" y="48.0469" width="10" height="10" rx="5" fill="#81818B" fill-opacity="0.2"/>
<rect x="32.1797" y="48.0469" width="10" height="10" rx="5" fill="#81818B" fill-opacity="0.2"/>
<rect x="48.1797" y="48.0469" width="10" height="10" rx="5" fill="#81818B" fill-opacity="0.2"/>
<rect x="64.1797" y="48.0469" width="10" height="10" rx="5" fill="#81818B" fill-opacity="0.2"/>
<rect x="80.1797" y="48.0469" width="10" height="10" rx="5" fill="#81818B" fill-opacity="0.2"/>
<rect x="96.1797" y="48.0469" width="10" height="10" rx="5" fill="#81818B" fill-opacity="0.2"/>
<rect x="112.18" y="48.0469" width="10" height="10" rx="5" fill="#81818B" fill-opacity="0.2"/>
<rect x="0.179688" y="64.0469" width="10" height="10" rx="5" fill="#81818B" fill-opacity="0.2"/>
<rect x="16.1797" y="64.0469" width="10" height="10" rx="5" fill="#81818B" fill-opacity="0.2"/>
<rect x="32.1797" y="64.0469" width="10" height="10" rx="5" fill="#81818B" fill-opacity="0.2"/>
<rect x="48.1797" y="64.0469" width="10" height="10" rx="5" fill="#81818B" fill-opacity="0.2"/>
<rect x="64.1797" y="64.0469" width="10" height="10" rx="5" fill="#81818B" fill-opacity="0.2"/>
<rect x="80.1797" y="64.0469" width="10" height="10" rx="5" fill="#81818B" fill-opacity="0.2"/>
<rect x="96.1797" y="64.0469" width="10" height="10" rx="5" fill="#81818B" fill-opacity="0.2"/>
<rect x="112.18" y="64.0469" width="10" height="10" rx="5" fill="#81818B" fill-opacity="0.2"/>
<rect x="0.179688" y="80.0469" width="10" height="10" rx="5" fill="#81818B" fill-opacity="0.2"/>
<rect x="16.1797" y="80.0469" width="10" height="10" rx="5" fill="#81818B" fill-opacity="0.2"/>
<rect x="32.1797" y="80.0469" width="10" height="10" rx="5" fill="#81818B" fill-opacity="0.2"/>
<rect x="48.1797" y="80.0469" width="10" height="10" rx="5" fill="#81818B" fill-opacity="0.2"/>
<rect x="64.1797" y="80.0469" width="10" height="10" rx="5" fill="#81818B" fill-opacity="0.2"/>
<rect x="80.1797" y="80.0469" width="10" height="10" rx="5" fill="#81818B" fill-opacity="0.2"/>
<rect x="96.1797" y="80.0469" width="10" height="10" rx="5" fill="#81818B" fill-opacity="0.2"/>
<rect x="112.18" y="80.0469" width="10" height="10" rx="5" fill="#81818B" fill-opacity="0.2"/>
<rect x="0.179688" y="96.0469" width="10" height="10" rx="5" fill="#81818B" fill-opacity="0.2"/>
<rect x="16.1797" y="96.0469" width="10" height="10" rx="5" fill="#81818B" fill-opacity="0.2"/>
<rect x="32.1797" y="96.0469" width="10" height="10" rx="5" fill="#81818B" fill-opacity="0.2"/>
<rect x="48.1797" y="96.0469" width="10" height="10" rx="5" fill="#81818B" fill-opacity="0.2"/>
<rect x="64.1797" y="96.0469" width="10" height="10" rx="5" fill="#81818B" fill-opacity="0.2"/>
<rect x="80.1797" y="96.0469" width="10" height="10" rx="5" fill="#81818B" fill-opacity="0.2"/>
<rect x="96.1797" y="96.0469" width="10" height="10" rx="5" fill="#81818B" fill-opacity="0.2"/>
<rect x="112.18" y="96.0469" width="10" height="10" rx="5" fill="#81818B" fill-opacity="0.2"/>
<rect x="0.179688" y="112.047" width="10" height="10" rx="5" fill="#81818B" fill-opacity="0.2"/>
<rect x="16.1797" y="112.047" width="10" height="10" rx="5" fill="#81818B" fill-opacity="0.2"/>
<rect x="32.1797" y="112.047" width="10" height="10" rx="5" fill="#81818B" fill-opacity="0.2"/>
<rect x="48.1797" y="112.047" width="10" height="10" rx="5" fill="#81818B" fill-opacity="0.2"/>
<rect x="64.1797" y="112.047" width="10" height="10" rx="5" fill="#81818B" fill-opacity="0.2"/>
<rect x="80.1797" y="112.047" width="10" height="10" rx="5" fill="#81818B" fill-opacity="0.2"/>
<rect x="96.1797" y="112.047" width="10" height="10" rx="5" fill="#81818B" fill-opacity="0.2"/>
<rect x="112.18" y="112.047" width="10" height="10" rx="5" fill="#81818B" fill-opacity="0.2"/>
</svg>
