<svg width="138" height="33" viewBox="0 0 138 33" fill="none" xmlns="http://www.w3.org/2000/svg">
<path d="M51.3627 12.3896C51.0161 11.751 50.5143 11.2676 49.8575 10.9392C49.2189 10.5926 48.4618 10.4192 47.5861 10.4192C46.0718 10.4192 44.8586 10.921 43.9463 11.9244C43.034 12.9096 42.578 14.2324 42.578 15.8926C42.578 17.6623 43.0524 19.0489 44.001 20.0523C44.968 21.0375 46.2907 21.5301 47.9692 21.5301C49.1186 21.5301 50.0856 21.2382 50.8701 20.6544C51.6729 20.0705 52.2566 19.2313 52.6216 18.1366H46.683V14.6884H56.8634V19.0398C56.5168 20.2074 55.9238 21.293 55.0846 22.2964C54.2636 23.2998 53.2145 24.1118 51.9374 24.732C50.6603 25.3523 49.2189 25.6625 47.6135 25.6625C45.716 25.6625 44.0193 25.252 42.5232 24.431C41.0454 23.5918 39.8869 22.4332 39.0477 20.9554C38.2267 19.4776 37.8162 17.79 37.8162 15.8926C37.8162 13.9951 38.2267 12.3075 39.0477 10.8297C39.8869 9.33372 41.0454 8.17516 42.5232 7.35415C44.001 6.51494 45.6886 6.09528 47.5861 6.09528C49.8849 6.09528 51.8188 6.65178 53.3878 7.76466C54.9751 8.87753 56.0242 10.4192 56.535 12.3896H51.3627ZM64.1353 12.8001C64.6826 11.9609 65.3668 11.3041 66.1878 10.8297C67.0088 10.3371 67.921 10.0908 68.9245 10.0908V15.0442H67.6382C66.4706 15.0442 65.5949 15.2997 65.011 15.8105C64.4272 16.3031 64.1353 17.1788 64.1353 18.4377V25.5257H59.4556V10.255H64.1353V12.8001ZM78.1124 25.7446C76.6163 25.7446 75.2663 25.4254 74.0621 24.7868C72.8762 24.1482 71.9366 23.236 71.2434 22.0501C70.5683 20.8642 70.2308 19.4776 70.2308 17.8903C70.2308 16.3213 70.5774 14.9439 71.2707 13.758C71.964 12.5538 72.9127 11.6325 74.1169 10.9939C75.321 10.3553 76.671 10.0361 78.1672 10.0361C79.6632 10.0361 81.0133 10.3553 82.2174 10.9939C83.4216 11.6325 84.3702 12.5538 85.0636 13.758C85.7568 14.9439 86.1035 16.3213 86.1035 17.8903C86.1035 19.4594 85.7477 20.846 85.0362 22.0501C84.3429 23.236 83.385 24.1482 82.1627 24.7868C80.9586 25.4254 79.6084 25.7446 78.1124 25.7446ZM78.1124 21.6943C79.0064 21.6943 79.7635 21.3659 80.3839 20.7091C81.0223 20.0523 81.3417 19.1127 81.3417 17.8903C81.3417 16.668 81.0315 15.7284 80.4112 15.0716C79.8092 14.4148 79.0611 14.0864 78.1672 14.0864C77.2549 14.0864 76.4978 14.4148 75.8957 15.0716C75.2936 15.7102 74.9926 16.6497 74.9926 17.8903C74.9926 19.1127 75.2845 20.0523 75.8684 20.7091C76.4704 21.3659 77.2184 21.6943 78.1124 21.6943ZM110.506 10.255L106.374 25.5257H101.202L98.794 15.6189L96.3036 25.5257H91.1587L86.9989 10.255H91.6786L93.8406 21.1744L96.4131 10.255H101.366L103.966 21.1196L106.1 10.255H110.506ZM119.954 14.1411H117.437V25.5257H112.757V14.1411H111.06V10.255H112.757V9.81716C112.757 7.93801 113.295 6.51494 114.371 5.54795C115.448 4.56275 117.026 4.07014 119.106 4.07014C119.452 4.07014 119.708 4.07927 119.872 4.09751V8.06569C118.979 8.01096 118.349 8.13863 117.984 8.44882C117.619 8.75901 117.437 9.3154 117.437 10.1182V10.255H119.954V14.1411ZM137.752 10.255L128.174 32.7779H123.138L126.641 25.0057L120.429 10.255H125.656L129.186 19.806L132.689 10.255H137.752Z" fill="white"/>
<path d="M16.9143 7.63203C16.9143 3.5628 20.213 0.264065 24.2823 0.264065H31.6502V7.63203C31.6502 11.7013 28.3515 15 24.2823 15C20.213 15 16.9143 11.7013 16.9143 7.63203Z" fill="#FF6D35"/>
<path d="M24.2822 32.6771C20.2129 32.6771 16.9142 29.3784 16.9142 25.3092V17.9412H24.2822C28.3514 17.9412 31.6501 21.2399 31.6501 25.3092C31.6501 29.3784 28.3514 32.6771 24.2822 32.6771Z" fill="#5CC97B"/>
<path d="M14.5926 15.6522C14.5926 7.47541 8.46638 0.846943 0.909279 0.846943V25.0214C0.909279 29.1097 3.9724 32.424 7.75106 32.424C11.5296 32.424 14.5926 29.1097 14.5926 25.0214V15.6522Z" fill="#3D96F4"/>
</svg>
