<svg width="211" height="65" viewBox="0 0 211 65" fill="none" xmlns="http://www.w3.org/2000/svg">
<path d="M23.1739 45.3943L34.8335 40.341L41.5445 44.1308L42.9002 56.564L34.6301 56.4978L35.8503 47.8539L34.4267 47.0561L27.4445 52.3753L23.1739 45.3943Z" fill="#81818B"/>
<path d="M42.2906 43.5985L52.5945 50.9783L56.6616 43.8645L48.3913 40.6066V39.0109L56.6616 35.6866L52.5945 28.6389L42.2906 36.019V43.5985Z" fill="#81818B"/>
<path d="M41.5445 35.4209L42.9002 22.9878L34.6301 23.1208L35.8503 31.7641L34.4267 32.5619L27.3767 27.243L23.1739 34.1576L34.8335 39.2107L41.5445 35.4209Z" fill="#81818B"/>
<path d="M84.2524 38.2858V49.934H88.7034V35.0895H82.2217V38.2858H84.2524Z" fill="#81818B"/>
<path d="M84.1133 33.0038C84.5213 33.419 85.1429 33.6266 85.9771 33.6266C86.8124 33.6266 87.424 33.419 87.813 33.0038C88.2215 32.5702 88.4252 32.0284 88.4252 31.3784C88.4252 30.7101 88.2215 30.1684 87.813 29.7531C87.424 29.3197 86.8124 29.103 85.9771 29.103C85.1429 29.103 84.5213 29.3197 84.1133 29.7531C83.7243 30.1684 83.5295 30.7101 83.5295 31.3784C83.5295 32.0284 83.7243 32.5702 84.1133 33.0038Z" fill="#81818B"/>
<path d="M68.7576 49.6088C70.0186 50.1685 71.5669 50.4487 73.4028 50.4487C75.128 50.4487 76.6111 50.1864 77.8543 49.6629C79.097 49.1394 80.0519 48.4078 80.7192 47.4686C81.4059 46.5116 81.7487 45.401 81.7487 44.1368C81.7487 42.909 81.4248 41.8706 80.7754 41.0217C80.1443 40.155 79.2639 39.4778 78.1325 38.9903C77.0012 38.4845 75.6934 38.1685 74.2097 38.0422L72.6521 37.9068C71.7249 37.8344 71.0571 37.5907 70.6492 37.1752C70.2407 36.76 70.037 36.2723 70.037 35.7126C70.037 35.279 70.1489 34.8819 70.3704 34.5207C70.5935 34.1414 70.9269 33.8435 71.3721 33.6267C71.8362 33.4101 72.4016 33.3017 73.0694 33.3017C73.774 33.3017 74.3583 33.428 74.8219 33.681C74.9237 33.7344 75.0209 33.7916 75.1117 33.8522L75.1337 33.8673C75.1678 33.8901 75.2015 33.9139 75.234 33.9379C75.5159 34.1475 75.7401 34.3959 75.9071 34.6832C76.1475 35.0806 76.2688 35.5228 76.2688 36.0106H80.7192C80.7192 34.7102 80.4131 33.5816 79.8015 32.6245C79.1899 31.6493 78.3089 30.9 77.1592 30.3761C76.0273 29.8343 74.6644 29.5634 73.0694 29.5634C71.5485 29.5634 70.2318 29.8164 69.1188 30.322C68.0063 30.8097 67.1348 31.5139 66.5043 32.4347C65.8916 33.3558 65.5856 34.4485 65.5856 35.7126C65.5856 37.4642 66.1888 38.8727 67.3942 39.9384C68.5996 41.0038 70.2134 41.6178 72.2347 41.7803L73.7651 41.9157C75.0072 42.0241 75.9071 42.2679 76.4636 42.647C77.0195 43.0082 77.2978 43.5048 77.2978 44.1368C77.2978 44.4274 77.249 44.6998 77.1513 44.9543C77.0789 45.1433 76.9791 45.3223 76.8531 45.4914C76.5554 45.8704 76.1202 46.1684 75.5453 46.3854C74.9704 46.602 74.2565 46.7102 73.4028 46.7102C72.4573 46.7102 71.6876 46.5841 71.0944 46.3308C70.5006 46.0601 70.0559 45.708 69.7583 45.2748C69.4805 44.8411 69.3419 44.3718 69.3419 43.866H64.9183C64.9183 45.1482 65.2427 46.2861 65.8916 47.279C66.5411 48.2544 67.496 49.0312 68.7576 49.6088Z" fill="#81818B"/>
<path d="M98.6348 50.1233C97.095 50.1233 95.8528 49.943 94.9068 49.5815C93.9607 49.2025 93.2656 48.5792 92.8204 47.7125C92.3941 46.8275 92.1805 45.6359 92.1805 44.1368V38.2587H89.8715V35.0895H92.1805V31.0806H96.3253V35.0895H100.777V38.2587H96.3253V44.2996C96.3253 45.0038 96.5112 45.5455 96.8818 45.9245C97.2714 46.286 97.8184 46.4664 98.5235 46.4664H100.777V50.1233H98.6348Z" fill="#81818B"/>
<path fill-rule="evenodd" clip-rule="evenodd" d="M106.136 49.7985C107.137 50.2316 108.287 50.4486 109.585 50.4486C110.865 50.4486 111.997 50.2316 112.979 49.7985C113.962 49.3649 114.779 48.76 115.427 47.9837C116.076 47.2069 116.513 46.3219 116.735 45.329H112.646C112.46 45.7805 112.108 46.1595 111.589 46.4664C111.069 46.7734 110.401 46.9273 109.585 46.9273C109.08 46.9273 108.628 46.8686 108.23 46.7523C107.927 46.6637 107.656 46.5416 107.415 46.3854C106.859 46.0243 106.451 45.5183 106.191 44.8684C106.119 44.6832 106.058 44.4895 106.006 44.2878C105.953 44.0835 105.91 43.8708 105.878 43.6494H117.013V42.1866C117.013 40.8322 116.716 39.5862 116.123 38.4485C115.529 37.2926 114.667 36.3626 113.536 35.6583C112.423 34.936 111.051 34.5748 109.418 34.5748C108.176 34.5748 107.063 34.7916 106.08 35.225C105.116 35.6403 104.309 36.209 103.66 36.9314C103.011 37.6538 102.51 38.4756 102.157 39.3966C101.824 40.2994 101.657 41.2475 101.657 42.2407V42.7825C101.657 43.7397 101.824 44.6787 102.157 45.5997C102.51 46.5027 103.011 47.3241 103.66 48.0646C104.327 48.7873 105.152 49.3649 106.136 49.7985ZM105.955 40.9709C105.967 40.9135 105.98 40.8571 105.994 40.8015C106.033 40.6483 106.077 40.5015 106.128 40.3613C106.157 40.2815 106.187 40.2036 106.22 40.1279C106.497 39.4597 106.906 38.9541 107.443 38.611C107.644 38.4828 107.862 38.3785 108.096 38.2983C108.49 38.1637 108.931 38.0963 109.418 38.0963C110.179 38.0963 110.809 38.2679 111.31 38.611C111.829 38.936 112.219 39.4145 112.479 40.0466C112.5 40.0976 112.52 40.1495 112.539 40.2021C112.569 40.2858 112.598 40.3718 112.625 40.4599C112.664 40.591 112.698 40.7267 112.728 40.8669C112.751 40.9702 112.769 41.0761 112.786 41.1844H105.912C105.925 41.112 105.939 41.0409 105.955 40.9709Z" fill="#81818B"/>
<path d="M118.85 49.934V35.0895H122.383V38.8282C122.431 38.606 122.486 38.3927 122.546 38.1881C122.599 38.0158 122.655 37.8496 122.717 37.6899C123.106 36.6786 123.69 35.9203 124.469 35.4145C125.248 34.8908 126.203 34.6291 127.335 34.6291H127.529C128.679 34.6291 129.634 34.8908 130.395 35.4145C131.174 35.9203 131.758 36.6786 132.147 37.6899L132.178 37.7663L132.204 37.8361C132.222 37.7868 132.24 37.7381 132.258 37.6899C132.666 36.6786 133.26 35.9203 134.039 35.4145C134.818 34.8908 135.773 34.6291 136.905 34.6291H137.099C138.249 34.6291 139.213 34.8908 139.992 35.4145C140.79 35.9203 141.393 36.6786 141.8 37.6899C142.208 38.7013 142.413 39.9655 142.413 41.4823V49.934H137.961V41.2385C137.961 40.4258 137.739 39.7667 137.294 39.2612C136.867 38.7554 136.255 38.5026 135.458 38.5026C134.66 38.5026 134.03 38.7645 133.566 39.2882C133.103 39.7938 132.871 40.471 132.871 41.3198V49.934H128.392V41.2385C128.392 40.4258 128.169 39.7667 127.724 39.2612C127.298 38.7554 126.694 38.5026 125.916 38.5026C125.1 38.5026 124.46 38.7645 123.996 39.2882C123.533 39.7938 123.301 40.471 123.301 41.3198V49.934H118.85Z" fill="#81818B"/>
<path fill-rule="evenodd" clip-rule="evenodd" d="M154.303 47.0735V49.934H157.835V40.8322C157.835 39.4597 157.557 38.3401 157.001 37.4732C156.444 36.5883 155.629 35.9292 154.553 35.4958C153.496 35.0624 152.188 34.8456 150.63 34.8456C150.293 34.8456 149.94 34.8491 149.573 34.8564C149.356 34.8607 149.133 34.8661 148.906 34.8727C148.293 34.8908 147.7 34.9179 147.125 34.9541L146.686 34.9828C146.46 34.9981 146.249 35.0132 146.049 35.0284C145.9 35.0397 145.757 35.0511 145.623 35.0624V38.7194C146.198 38.6832 146.838 38.647 147.543 38.611C147.74 38.601 147.935 38.5916 148.129 38.5829C148.409 38.5702 148.685 38.5593 148.959 38.5497C149.175 38.5421 149.389 38.5353 149.601 38.5296C150.269 38.5116 150.807 38.5026 151.215 38.5026C152.03 38.5026 152.624 38.6921 152.995 39.0714C153.366 39.4507 153.551 40.0195 153.551 40.7781V40.8322H150.797C149.444 40.8322 148.247 41.0038 147.208 41.3469C146.17 41.6719 145.363 42.1866 144.789 42.8908C144.213 43.5772 143.926 44.4621 143.926 45.5455C143.926 46.5389 144.158 47.3966 144.621 48.1192C145.085 48.823 145.725 49.3649 146.541 49.7439C147.376 50.1233 148.34 50.313 149.434 50.313C150.491 50.313 151.382 50.1233 152.105 49.7439C152.847 49.3649 153.422 48.823 153.83 48.1192C153.902 48.0002 153.968 47.8771 154.031 47.7492C154.119 47.5684 154.198 47.3782 154.267 47.1787L154.303 47.0735ZM153.551 44.435V43.2431H150.769C149.99 43.2431 149.388 43.4326 148.961 43.8119C148.553 44.1731 148.349 44.6697 148.349 45.3017C148.349 45.5992 148.4 45.8695 148.501 46.1134C148.604 46.3576 148.757 46.5747 148.961 46.7644C149.388 47.1259 149.99 47.3062 150.769 47.3062C150.917 47.3062 151.061 47.2991 151.199 47.2852C151.312 47.2735 151.422 47.257 151.529 47.236C151.732 47.1957 151.925 47.1375 152.105 47.0623C152.513 46.8821 152.847 46.5841 153.106 46.1684C153.366 45.7531 153.515 45.1751 153.551 44.435Z" fill="#81818B"/>
<path d="M160.499 49.934V35.0895H164.033V39.9892C164.202 38.5905 164.628 37.4626 165.312 36.6064C166.24 35.4688 167.574 34.9 169.318 34.9H169.903V38.638H168.79C167.566 38.638 166.62 38.963 165.952 39.6132C165.284 40.2453 164.95 41.1663 164.95 42.3761V49.934H160.499Z" fill="#81818B"/>
<path d="M175.547 42.9992H177.021L181.834 49.934H186.841L180.739 41.4173L185.756 35.0895H181.083L175.547 42.1478V30.1595H171.096V49.934H175.547V42.9992Z" fill="#81818B"/>
</svg>
