<svg width="119" height="19" viewBox="0 0 119 19" fill="none" xmlns="http://www.w3.org/2000/svg">
<g clip-path="url(#clip0_54_5)">
<path fill-rule="evenodd" clip-rule="evenodd" d="M9.99216 14.0551L4.22451 17.8345L6.03658 11.1812L0.659912 6.86377L7.54748 6.53118L9.99216 0.0834961L12.4368 6.53118L19.3244 6.86377L13.9477 11.1812L15.7598 17.8345L9.99216 14.0551Z" fill="#FFC54F"/>
</g>
<g clip-path="url(#clip1_54_5)">
<path fill-rule="evenodd" clip-rule="evenodd" d="M34.6172 14.0551L28.8495 17.8345L30.6616 11.1812L25.2849 6.86377L32.1725 6.53118L34.6172 0.0834961L37.0618 6.53118L43.9494 6.86377L38.5727 11.1812L40.3848 17.8345L34.6172 14.0551Z" fill="#FFC54F"/>
</g>
<g clip-path="url(#clip2_54_5)">
<path fill-rule="evenodd" clip-rule="evenodd" d="M59.2422 14.0551L53.4745 17.8345L55.2866 11.1812L49.9099 6.86377L56.7975 6.53118L59.2422 0.0834961L61.6868 6.53118L68.5744 6.86377L63.1977 11.1812L65.0098 17.8345L59.2422 14.0551Z" fill="#FFC54F"/>
</g>
<g clip-path="url(#clip3_54_5)">
<path fill-rule="evenodd" clip-rule="evenodd" d="M83.8672 14.0551L78.0995 17.8345L79.9116 11.1812L74.5349 6.86377L81.4225 6.53118L83.8672 0.0834961L86.3118 6.53118L93.1994 6.86377L87.8227 11.1812L89.6348 17.8345L83.8672 14.0551Z" fill="#FFC54F"/>
</g>
<g clip-path="url(#clip4_54_5)">
<path fill-rule="evenodd" clip-rule="evenodd" d="M108.492 14.0551L102.725 17.8345L104.537 11.1812L99.1599 6.86377L106.047 6.53118L108.492 0.0834961L110.937 6.53118L117.824 6.86377L112.448 11.1812L114.26 17.8345L108.492 14.0551Z" fill="#FFC54F"/>
</g>
<defs>
<clipPath id="clip0_54_5">
<rect width="19.625" height="17.9896" fill="white" transform="translate(0.179688 0.0834961)"/>
</clipPath>
<clipPath id="clip1_54_5">
<rect width="19.625" height="17.9896" fill="white" transform="translate(24.8047 0.0834961)"/>
</clipPath>
<clipPath id="clip2_54_5">
<rect width="19.625" height="17.9896" fill="white" transform="translate(49.4297 0.0834961)"/>
</clipPath>
<clipPath id="clip3_54_5">
<rect width="19.625" height="17.9896" fill="white" transform="translate(74.0547 0.0834961)"/>
</clipPath>
<clipPath id="clip4_54_5">
<rect width="19.625" height="17.9896" fill="white" transform="translate(98.6797 0.0834961)"/>
</clipPath>
</defs>
</svg>
